<svg xmlns="http://www.w3.org/2000/svg" version="1.1" xmlns:xlink="http://www.w3.org/1999/xlink" xmlns:svgjs="http://svgjs.dev/svgjs" viewBox="0 0 4.423420509456645 3.961946893085599"><g transform="matrix(0.8500704846218525,0,0,0.8500704846218525,0.6286070354654367,2.5531415559412727)"><rect width="5.122201126335165" height="5.122201126335165" x="-0.6987806168785204" y="-3.2341837012711214" fill="#ffffff"></rect><g transform="matrix(1,0,0,1,0,0)" clip-path="url(#SvgjsClipPath29723)"><g clip-path="url(#SvgjsClipPath29718df3fda1a-42d5-45bd-afd8-34f47e6579ac)"><path d=" M 1.6315523187067302 -1.644295339139909 C 1.6159439687569837 -1.6627519281315803 1.6004875248894734 -1.681360423205487 1.585638705350907 -1.70050058956722 C 1.5286739245124163 -1.7738332507666366 1.5225976812229773 -1.8537358500227594 1.5537384280813524 -1.9387273030337873 C 1.574093843100973 -1.9942869526115947 1.6087284298507754 -2.0408841433374802 1.6465910208480918 -2.0853546489120616 C 1.7011632808913657 -2.149496992136202 1.7558874470168755 -2.213487429278106 1.8105356601012674 -2.2775538194611284 C 1.8176372694457994 -2.2859086539841074 1.825460432680952 -2.293390028534229 1.8354862341085263 -2.298175070124662 C 1.8627153993493246 -2.311201016676397 1.8917674375769546 -2.3044032194963373 1.913034289089991 -2.27975645765355 C 1.933693516274084 -2.255869226221943 1.9541628608553814 -2.2318300887081004 1.97459422891612 -2.2077529746736984 C 2.017469720627224 -2.1571682492891187 2.0616364140373333 -2.107646866480191 2.103068797967196 -2.0558848689582825 C 2.137741361237557 -2.0125536590004707 2.165578150807299 -1.9653108674250828 2.17989529905804 -1.911232302149076 C 2.2012381036121944 -1.8307220785640093 2.185022129333504 -1.7581109712552137 2.1324246483592977 -1.6935129097843653 C 2.1176897583824084 -1.6754360859982844 2.1034865396933444 -1.6569035439654956 2.088030095825834 -1.6391305323438865 C 2.1342095448255702 -1.654548999690838 2.179591486893568 -1.67144855133959 2.2237961568242364 -1.6940825575927505 C 2.2265304663044843 -1.671638433942385 2.226644395866161 -1.650409558949908 2.2255430767699504 -1.6291427074368712 C 2.2187832561104495 -1.499908607974616 2.173173454919098 -1.3839662907080084 2.104625835310114 -1.2758471366765534 C 2.06326940442137 -1.2106414508767616 2.016634237174926 -1.1493473466945459 1.967986314338855 -1.0894963502935715 C 1.9668849952426442 -1.0881671720740067 1.9659735587492286 -1.086686087772206 1.9649861692146948 -1.085242979990964 C 1.963694967515689 -1.0847113087031384 1.962631624940037 -1.083951778291958 1.963694967515689 -1.0824706939901576 C 1.9638848501184838 -1.0822428348668038 1.9653279578997254 -1.0829264122368654 1.9662014178725824 -1.0831922478807787 C 2.0122289607900825 -1.1077630566824475 2.0593578228037934 -1.1299413446888997 2.1083095578043363 -1.1481320980366578 C 2.205225638270888 -1.1841718160471428 2.305103887341042 -1.206046291889123 2.4083620467409452 -1.211894676055208 C 2.5505841162343765 -1.219945698413715 2.689578181480293 -1.2030841232855212 2.8246986416291926 -1.1568666977652262 C 2.8836002250161914 -1.136701165348401 2.9309189696326974 -1.1013450247079775 2.9723893300831183 -1.0548617635437691 C 3.0735587808522777 -0.9415018496751733 3.1768549167727405 -0.8300027853139678 3.2792775927203457 -0.7177062140210237 C 3.3367740448466625 -0.6547031664136531 3.39423252045242 -0.5916621422857238 3.451653019537618 -0.5286211181577947 C 3.4620965626913414 -0.5171522089489784 3.471438786748854 -0.505151628452337 3.4742490492702194 -0.48908756025588196 C 3.4805531516830124 -0.4529339126837202 3.4524505264693572 -0.4177296781255331 3.4158031841299286 -0.4171600303171479 C 3.3831433764491936 -0.4166283590293225 3.350521545289018 -0.41689419467323496 3.3178617376082835 -0.41689419467323496 C 2.9274631062618295 -0.4168182416321169 2.5370644749153746 -0.41674228859099904 2.146703820089479 -0.4169321711937941 C 2.1373615960319663 -0.4169321711937941 2.132956319647123 -0.41393202606963353 2.1283611606594848 -0.4058050506700088 C 2.0779663178777 -0.3169020160414049 2.0018233941569177 -0.26529192460173245 1.900464060784964 -0.2526077667350286 C 1.7726730691039503 -0.23661965157969211 1.6587814839475283 -0.2948756341171883 1.5958923659018351 -0.40736208801292784 C 1.5919428077636997 -0.41442572083690044 1.5878033670227694 -0.4169701477143528 1.5796763916231447 -0.4169701477143528 C 1.1843787891245796 -0.4167802651115582 0.7890811866260148 -0.41685621815267626 0.393745607606891 -0.41689419467323496 C 0.36742787885950834 -0.41689419467323496 0.3410721735915668 -0.41708407727603003 0.31475444484418424 -0.41689419467323496 C 0.2875252796033858 -0.41670431207044034 0.2668660524192932 -0.4280972682381381 0.2556629788543901 -0.45281998312204297 C 0.24449788181004592 -0.47742876844427085 0.2486752990715352 -0.5010121877114062 0.2668660524192932 -0.5211777201282319 C 0.30658949292400056 -0.565230483976664 0.3466547221137389 -0.6089794356606248 0.3866439982623592 -0.6527663638651446 C 0.5121184221892741 -0.7901274387270245 0.6385422591301639 -0.9266150536160476 0.7626115517963963 -1.0651913771358157 C 0.8093986251250764 -1.1174470694249907 0.8673507954981007 -1.1470307789404468 0.9324425517362158 -1.1665507105077697 C 1.001483866112466 -1.1872479142124217 1.0721201943521945 -1.1995143303529763 1.1436679590853385 -1.2073754701086878 C 1.2105066352691676 -1.2147429150971332 1.2774972175352322 -1.2162999524400517 1.344411846760179 -1.2107933569589973 C 1.4317198675253056 -1.2036157945733477 1.5168632266185689 -1.1853111116639126 1.5994241823138213 -1.1558033551895743 C 1.6468948330125637 -1.1388278504997043 1.6937198828618025 -1.1203332849874743 1.738152411915825 -1.0962941474736316 C 1.7404689796699238 -1.0950409222951847 1.7426716178623454 -1.0928382841027633 1.7460515281920956 -1.094015556240092 C 1.7289620939405486 -1.1167634920549292 1.7117967066478836 -1.1392076157052942 1.695049061081367 -1.1619935280406903 C 1.641616096654863 -1.2346426118700453 1.5903857704207809 -1.308658850439524 1.5557132071504196 -1.3926249373954587 C 1.5200532543455243 -1.4789455686260515 1.498748426311929 -1.5683422980219226 1.5001155810520528 -1.662334186405432 C 1.5002674871342887 -1.6720941521890929 1.5012928531893814 -1.6818161414521955 1.5020144070800023 -1.6929432619759806 C 1.5438645327360134 -1.672284034791888 1.5863222827209684 -1.6563338961571108 1.6295775396376622 -1.6424344896325191 C 1.630526952651637 -1.6414091235774262 1.6316662482684068 -1.6409534053307184 1.6327295908440587 -1.642054724426929 C 1.6329194734468537 -1.6422446070297239 1.6320080369534378 -1.6434978322081708 1.6316282717478476 -1.6442573626193506 Z M 2.1061448961324736 -1.4602611205110263 C 2.106562637858623 -1.4597674257437592 2.1069803795847717 -1.4592737309764923 2.1073981213109207 -1.4588180127297847 C 2.0893972505659577 -1.4350826873804134 2.0729534171639137 -1.4102460429348316 2.056319701159074 -1.3855613045714856 C 2.0066084357473515 -1.311772925125361 1.9568591938150697 -1.238060498720354 1.9071859049239064 -1.1642341427536709 C 1.9036920650324787 -1.1590693359576476 1.8989070234420455 -1.1536007169971527 1.8983373756336608 -1.1479042389133038 C 1.897008197414096 -1.134878292361569 1.8979196339075117 -1.1215865101659213 1.8979196339075117 -1.1084086575319505 C 1.8990209530037228 -1.1081807984085967 1.9000842955793744 -1.1079909158058012 1.9011856146755852 -1.1077630566824475 C 1.903464205909125 -1.110345460080459 1.9058187501837827 -1.112889886957912 1.908021388376204 -1.1155482433970412 C 1.9404533369335846 -1.1547020360933633 1.9715181307508416 -1.194919171365338 2.001595535033564 -1.235933813569051 C 2.0542689690488887 -1.307709437425549 2.101549737144836 -1.3824852064062074 2.1317410709892357 -1.4669070116088503 C 2.147957045267926 -1.5121750241151708 2.159539884038419 -1.5586203087588197 2.166793399465187 -1.606128935978121 C 2.1680086481230747 -1.6140660287749506 2.1641350430260573 -1.6119393436236467 2.159805719682332 -1.6105721888835232 C 2.1072462152286846 -1.5937865667964477 2.0546487342544784 -1.577076897750491 2.0020892298008315 -1.5602912756634155 C 1.9788855757392863 -1.5528858541544117 1.9557198981983002 -1.5453665030837311 1.931035159834954 -1.5373914337663424 C 1.9440611063866888 -1.5552783749496282 1.9583023015963115 -1.5698613588442822 1.9714801542302822 -1.5852798261912335 C 2.015950659804864 -1.637231706315937 2.0601553297355326 -1.6894114455639941 2.101511760624277 -1.7439457290867093 C 2.1373615960319667 -1.7911885206620974 2.1441973697325856 -1.842115034731708 2.1279054424127772 -1.8978645669123102 C 2.1134363880798013 -1.9473479732006789 2.0860173402362077 -1.9893120284183667 2.053243602993796 -2.0281240324296586 C 1.9930508179077908 -2.0994439380394487 1.9324023145750782 -2.1704220549642077 1.8719057173246012 -2.241514101450644 C 1.8639306480072126 -2.250894302028715 1.8601709724718722 -2.2507423959464794 1.8510945840582727 -2.240108970189961 C 1.789762503355498 -2.168409299374581 1.7283164930910462 -2.096823558120878 1.6673262010733025 -2.0248580516615853 C 1.6425655096688387 -1.9956541073517189 1.621146752073566 -1.9640956187671952 1.6062599560144408 -1.9285116190034182 C 1.5769041056223385 -1.858406962051516 1.5822587950211566 -1.7931253232106057 1.6310586239394633 -1.732362890316216 C 1.6670603654293894 -1.6874746430154857 1.7030621069193155 -1.6426243722353142 1.740886721396073 -1.599255185756943 C 1.7576723434831485 -1.5800010898335337 1.7742680829674287 -1.5605950878278878 1.790939775492827 -1.54126503886336 C 1.7905979868077961 -1.5406953910549754 1.7902182216022058 -1.5401257432465902 1.7898764329171752 -1.5395560954382053 C 1.7135436265935977 -1.5635952329520484 1.6372108202700206 -1.5876343704658913 1.5600425304941459 -1.6119393436236473 C 1.5601944365763816 -1.6096607523901074 1.5601944365763816 -1.6083315741705428 1.5603843191791764 -1.6070403724715367 C 1.5731824066075575 -1.5147574275131825 1.6022344448351875 -1.427867148474205 1.64856579991716 -1.3471290657657846 C 1.6992644548634164 -1.2587197259044474 1.761469995539048 -1.1781715257988217 1.8229539823240586 -1.0972435604876065 C 1.8234097005707668 -1.0966739126792215 1.8246629257492133 -1.0967118891997805 1.8254984092015114 -1.0964840300764265 C 1.827017470023871 -1.1388658270202632 1.8286504604079077 -1.1809058352790693 1.8299796386274725 -1.222945843537875 C 1.8343469384917568 -1.361863955742674 1.838714238356041 -1.5008200444680317 1.8428916556175303 -1.6397381566728304 C 1.8467272841939886 -1.767794983997757 1.8502591006059752 -1.8958518113226837 1.8540567526618745 -2.02390863864761 C 1.8551580717580853 -2.0614674174804546 1.8566011795393274 -2.0989882197927403 1.85800631080001 -2.136509022105026 C 1.858120240361687 -2.1399648854758944 1.8564872499776504 -2.1451296922719174 1.8629052819521201 -2.1446739740252094 C 1.868715689597646 -2.1442562322990604 1.8662092392407525 -2.1393572611469507 1.8663611453229887 -2.1364710455844667 C 1.8672346052958457 -2.1199892356618637 1.8678802061453483 -2.1035074257392603 1.8684118774331744 -2.0870256158166574 C 1.8707664217078321 -2.0136929546172406 1.8730450129413718 -1.9403982699383826 1.8753995572160291 -1.867065608738966 C 1.8787414910252205 -1.763921378900739 1.8820454483138531 -1.6607771490625125 1.8855013116847215 -1.5576329192242857 C 1.8876279968360254 -1.4930728342739963 1.8901724237134778 -1.428550725844266 1.8919952967003093 -1.363990640893977 C 1.8922991088647814 -1.3536610273019307 1.895299253988942 -1.3546104403159056 1.9025907459362688 -1.3583321393306869 C 1.9409850082214115 -1.3778140943774506 1.979569153109349 -1.3969162842186247 2.0180773449561684 -1.4161703801420342 C 2.0474331953482707 -1.4308672935983648 2.076789045740373 -1.4456021835752546 2.106182872653034 -1.460299097031585 Z M 0.6054267332027216 -0.7719366853792662 C 0.6699488416324517 -0.7809371207517477 0.734508926582741 -0.7898995796036701 0.7990310350124711 -0.7989759680172697 C 0.8854276192841817 -0.8111284545961477 0.9715203913914203 -0.8254076263263295 1.0582967408687207 -0.8347498503838413 C 1.1503898032242803 -0.844661722249739 1.2422929829770448 -0.8468643604421608 1.3343860453326046 -0.8345599677810467 C 1.462404896136972 -0.8174705335294996 1.5813093820071813 -0.7764558913257866 1.6874537569695685 -0.701642145824569 C 1.7581660382504147 -0.6518169508511691 1.816308091226234 -0.5904468936278358 1.856904991703798 -0.5134684864547554 C 1.858841794252307 -0.5097467874399744 1.8617280098147904 -0.506176994507429 1.8613102680886418 -0.50010075121799 C 1.8280428360789631 -0.5316212632819546 1.793218366726366 -0.5593441232900203 1.7567609069897319 -0.5849782746673409 C 1.6347043699131263 -0.6708811641717844 1.5002295106137298 -0.726934508516859 1.3529945404065113 -0.7517711529624409 C 1.2430145368676657 -0.7703416715157885 1.1327307211643483 -0.767075690747715 1.0225988115432665 -0.7534421198670365 C 0.959671716977014 -0.7456569331524432 0.8970104580546745 -0.7356691082454279 0.83415931652954 -0.7271623676402132 C 0.737964789953609 -0.7141364210884786 0.6416943103365602 -0.7016801223451283 0.5454997837606292 -0.6884263166700395 C 0.5362714892647937 -0.6871730914915926 0.5259038991521886 -0.6883883401494806 0.5182326419992718 -0.6799575525853838 C 0.4697366252454369 -0.6268284003233517 0.42097477284768914 -0.5739271071846734 0.3723648265321773 -0.5209118844843184 C 0.3642758276531116 -0.5121013317146317 0.356452664417959 -0.5030629198215915 0.3473382994838004 -0.49284723579122236 C 0.3517815523892027 -0.49284723579122236 0.35387026101994734 -0.49284723579122236 0.35595896965069196 -0.49284723579122236 C 0.7779540661022294 -0.4929231888323402 1.1999491625537668 -0.4929991418734583 1.6219822355258635 -0.493037118394017 C 1.6401350123530625 -0.493037118394017 1.6453757721902036 -0.4894293489409125 1.6514520154796424 -0.47230193816880606 C 1.6562750335906347 -0.4587443203292456 1.6618196055922478 -0.44556646769527464 1.6695668157862824 -0.4333760045958379 C 1.720759165499806 -0.35271387492853523 1.8121686504853034 -0.311927091848176 1.906198515389372 -0.330953328648232 C 1.984544077302576 -0.3468275142418913 2.041318975538271 -0.3914119493781496 2.0713963798209942 -0.46694724876998817 C 2.0809284864813016 -0.4909104332427128 2.0830931481531647 -0.49296116535289847 2.108993135174398 -0.49296116535289847 C 2.527114626528918 -0.49296116535289847 2.945274094403997 -0.49296116535289847 3.3633955857585174 -0.49296116535289847 C 3.367003355211622 -0.49296116535289847 3.370611124664726 -0.49296116535289847 3.375889861022426 -0.49296116535289847 C 3.3728517393777064 -0.4964929817648851 3.371294702034788 -0.4983538312722755 3.36969968817131 -0.5001007512179896 C 3.31915293930729 -0.555660400795797 3.2681504721965613 -0.6108402851680148 3.2183632537437203 -0.6670455355953258 C 3.206552555849873 -0.6803752943115324 3.1937924449420514 -0.6866793967243252 3.1765890811288275 -0.688920011437306 C 3.098395425297859 -0.6991356954676755 3.0203536755491274 -0.7106046046764913 2.942160019718159 -0.7208962417479783 C 2.853522820733468 -0.7325550335595896 2.7653033634749264 -0.7472899235364794 2.6764383053668808 -0.7568220301967867 C 2.5900037445746116 -0.7660883012131812 2.503455254220665 -0.7679111742000126 2.4169447403872772 -0.7579993023341152 C 2.3111041775893617 -0.7458468157552371 2.21004865638188 -0.7166428714453712 2.113778176764831 -0.6711090232951378 C 2.022558574382128 -0.6279297194195619 1.939921665645758 -0.5721042341978411 1.866892816610813 -0.5021894598487338 C 1.8651458966650993 -0.5058352058223976 1.867538417460316 -0.5085315387820859 1.8689055722004397 -0.5111519187006563 C 1.883184743930621 -0.5385329900236908 1.8995906008121066 -0.5645848831271609 1.9187687436943983 -0.5888139032437985 C 1.986139091166053 -0.6738813092959441 2.0725356754377637 -0.7333145639707694 2.171654394096737 -0.7752406426678986 C 2.2638234094934147 -0.8142425292819848 2.3603977012749358 -0.8343321086576925 2.460086067742294 -0.8409400232349573 C 2.544849661629968 -0.8465605482776886 2.629119560750375 -0.8410159762760752 2.713123624226869 -0.8304585035606753 C 2.7638602556936847 -0.8240784481067647 2.8144449810782635 -0.8163692144332886 2.865067682983402 -0.8090397459654028 C 2.9361597294698383 -0.7987860854144744 3.007213799435715 -0.7881906361785154 3.0783058459221513 -0.778126858230382 C 3.092547041131774 -0.7761141026407556 3.1067122833002787 -0.7726582392698869 3.1217130089210805 -0.7728481218726819 C 3.121067408071578 -0.7743292061744826 3.1209534785099007 -0.7750127835445448 3.120535736783752 -0.7754685017912526 C 3.051722281530856 -0.8504721298952653 2.9817695306611895 -0.9244503919441849 2.9145510892717708 -1.0008591513088803 C 2.878017676494019 -1.0424054648004195 2.835673856070741 -1.07217905691867 2.7833422107404484 -1.0894203972524537 C 2.6899579466858827 -1.1202193554257975 2.5935735375071567 -1.132371842004675 2.496049832711661 -1.1372708131567857 C 2.39119665944828 -1.1425115729939266 2.287178969637196 -1.1342706680326253 2.1840727163195286 -1.1144089477802714 C 2.090118804456578 -1.0962941474736316 1.9988232490327573 -1.0691029587533922 1.9097303318013583 -1.0343544424419127 C 1.904033853717509 -1.032113827728932 1.9018312155250876 -1.0292655886870075 1.9020590746484416 -1.022809580191979 C 1.9041098067586273 -0.9708956765878347 1.905970656266018 -0.91898177298369 1.9073757875267006 -0.8670298928589868 C 1.9086669892257064 -0.8203567490919841 1.911629157829308 -0.7737215818455392 1.9107177213358921 -0.7270104615579775 C 1.910262003089184 -0.7035789483730783 1.8907420715218612 -0.6843628289702275 1.8662851922818695 -0.681552566448862 C 1.845398105974423 -0.6791220691330864 1.8243211370641814 -0.6938569591099759 1.8175233398841217 -0.7152377401846892 C 1.8142573591160485 -0.7255673537767355 1.815206772130023 -0.7360868499715767 1.8155105842944952 -0.7465683696458592 C 1.8182448937747429 -0.8374461833435305 1.8209792032549903 -0.9283239970412027 1.8242072075025049 -1.0191638342183154 C 1.8245489961875356 -1.0287718939197406 1.8217387336661703 -1.0332531233457019 1.8127762748142477 -1.0366710101960113 C 1.7778378758999738 -1.050038745432777 1.7426336413417864 -1.0625709972172452 1.7069357120163324 -1.0736601412204714 C 1.5732583596486747 -1.115168478191451 1.4367707447596514 -1.1388658270202632 1.296485477814729 -1.1385240383352326 C 1.2374319883454938 -1.1383721322529967 1.1786823110407307 -1.1346124567176563 1.1201225163387625 -1.1272070352086525 C 1.056473867881889 -1.1191560128501457 0.9935467733156366 -1.1075731740796526 0.9328982699829237 -1.0861544164843806 C 0.8970484345752338 -1.0734702586176765 0.8629075425926984 -1.0574821434623405 0.8365138608041979 -1.028733917399182 C 0.8023729688216625 -0.9914789507308095 0.7681941003185683 -0.9542619605829954 0.7341671378977099 -0.9169310408735047 C 0.6907219983782212 -0.8692325310514086 0.6473907884204095 -0.8214200916676355 0.6039836254214797 -0.7736456288044213 C 0.6031481419691819 -0.7733038401193904 0.6020468228729712 -0.7728101453521237 0.602920282845828 -0.7718227558175899 C 0.6032620715308589 -0.7714429906119995 0.6045912497504238 -0.7718987088587077 0.6054647097232806 -0.7719746618998256 Z" fill="#173054" transform="matrix(1,0,0,1,0,0)" fill-rule="nonzero"></path></g><g clip-path="url(#SvgjsClipPath29718df3fda1a-42d5-45bd-afd8-34f47e6579ac)"><path d=" M 0.6039456489009207 -0.7736456288044211 C 0.6473148353792915 -0.8214200916676353 0.6906460453371033 -0.8692325310514077 0.734129161377151 -0.9169310408735041 C 0.7681561237980095 -0.954261960582995 0.8023349923011037 -0.9914789507308086 0.836475884283639 -1.0287339173991814 C 0.8628695660721395 -1.0575201199828992 0.8970104580546748 -1.0735082351382352 0.9328602934623648 -1.08615441648438 C 0.9935467733156366 -1.1075731740796524 1.05643589136133 -1.1191560128501457 1.1200845398182033 -1.1272070352086518 C 1.1786443345201718 -1.1346124567176556 1.2374319883454938 -1.1383721322529965 1.29644750129417 -1.1385240383352322 C 1.4367707447596514 -1.138903803540822 1.5732203831281157 -1.11520645471201 1.7068977354957735 -1.0736601412204707 C 1.7425956648212275 -1.0625709972172448 1.7777998993794148 -1.0500387454327769 1.8127382982936888 -1.036671010196011 C 1.8217007571456114 -1.0332531233457016 1.824511019666977 -1.0287339173991812 1.824169230981946 -1.019163834218315 C 1.8209412267344314 -0.9283239970412023 1.8182069172541837 -0.8374461833435303 1.8154726077739363 -0.7465683696458585 C 1.8151687956094642 -0.7361248264921354 1.8142193825954893 -0.7255673537767353 1.8174853633635626 -0.7152377401846888 C 1.824283160543623 -0.6938569591099752 1.845360129453864 -0.6791220691330859 1.8662472157613104 -0.6815525664488613 C 1.8907040950013023 -0.684362828970227 1.910224026568625 -0.7035789483730774 1.9106797448153332 -0.7270104615579769 C 1.9115911813087492 -0.773721581845539 1.9086290127051475 -0.8203567490919834 1.9073378110061416 -0.8670298928589866 C 1.9058947032248998 -0.9189437964631308 1.9040718302380681 -0.9708956765878343 1.9020210981278827 -1.0228095801919783 C 1.9017552624839698 -1.0292655886870075 1.9039579006763911 -1.032113827728932 1.9096923552807992 -1.0343544424419124 C 1.9987852725121984 -1.0691029587533913 2.090080827936019 -1.0962941474736307 2.1840347397989697 -1.114408947780271 C 2.287140993116637 -1.1343086445531838 2.391158682927721 -1.1425495495144853 2.496011856191102 -1.137270813156785 C 2.5935355609865978 -1.132371842004675 2.6899579466858827 -1.120257331946356 2.783304234219889 -1.089420397252453 C 2.835597903029623 -1.07217905691867 2.8779796999734595 -1.0424054648004188 2.914513112751212 -1.0008591513088798 C 2.9817315541406306 -0.9244503919441844 3.051684305010297 -0.8504721298952647 3.120497760263193 -0.7754685017912524 C 3.120915501989342 -0.7750507600651035 3.1210294315510194 -0.7743292061744826 3.121675032400522 -0.7728481218726815 C 3.1066743067797193 -0.7726582392698869 3.0925090646112148 -0.776114102640755 3.0782678694015924 -0.7781268582303817 C 3.0071378463945972 -0.7882286126990738 2.9361217529492794 -0.7987860854144744 2.865029706462843 -0.8090397459654024 C 2.8144070045577045 -0.816331237912729 2.7638222791731253 -0.824078448106764 2.7130856477063094 -0.8304585035606746 C 2.629081584229816 -0.8410159762760749 2.5448116851094085 -0.8465605482776881 2.460048091221735 -0.8409400232349571 C 2.360359724754377 -0.834332108657692 2.263785432972856 -0.8142425292819846 2.1716164175761783 -0.7752406426678979 C 2.0725356754377637 -0.7333145639707694 1.986101114645494 -0.6738813092959439 1.9187307671738394 -0.5888139032437985 C 1.8995526242915477 -0.5645848831271603 1.8831467674100622 -0.5385329900236908 1.8688675956798808 -0.5111519187006563 C 1.8675004409397566 -0.5085315387820852 1.8651079201445402 -0.5058352058223969 1.866854840090254 -0.5021894598487333 C 1.939883689125199 -0.5721042341978404 2.0225205978615692 -0.6279297194195617 2.113740200244272 -0.6711090232951371 C 2.2100106798613206 -0.7166808479659297 2.311066201068803 -0.7458468157552365 2.4169067638667183 -0.7579993023341147 C 2.503417277700106 -0.7679491507205711 2.5899657680540527 -0.7660883012131803 2.6764003288463223 -0.7568220301967861 C 2.7653033634749264 -0.7472899235364787 2.853522820733468 -0.7325550335595894 2.9421220431976005 -0.7208962417479781 C 3.020315699028569 -0.7106046046764904 3.0983574487773002 -0.6990977189471157 3.176551104608268 -0.6889200114373057 C 3.1937164919009335 -0.686679396724325 3.206514579329314 -0.6803752943115318 3.218325277223161 -0.6670455355953251 C 3.268112495676002 -0.6108402851680148 3.3191149627867302 -0.5556604007957966 3.369661711650751 -0.5001007512179889 C 3.371294702034788 -0.49831585475171636 3.372813762857148 -0.49645500524432573 3.3758518845018672 -0.49296116535289847 C 3.370573148144167 -0.49296116535289847 3.3669653786910625 -0.49296116535289847 3.363357609237958 -0.49296116535289847 C 2.945236117883438 -0.49296116535289847 2.5270766500083592 -0.49296116535289847 2.1089551586538393 -0.49296116535289847 C 2.083055171632606 -0.49296116535289847 2.080890509960743 -0.4909104332427128 2.0713584033004357 -0.4669472487699877 C 2.0412809990177134 -0.39141194937814894 1.9845061007820173 -0.3468275142418906 1.9061605388688134 -0.3309533286482309 C 1.8121306739647454 -0.3118891153276162 1.7207591654998065 -0.35271387492853457 1.669528839265724 -0.4333760045958368 C 1.6617816290716891 -0.4455664676952742 1.6561990805495173 -0.4587443203292445 1.6514140389590841 -0.4723019381688056 C 1.645337795669645 -0.4893913724203527 1.640097035832504 -0.4930371183940163 1.6219442590053053 -0.4930371183940163 C 1.1999491625537675 -0.49296116535289847 0.77795406610223 -0.4929231888323391 0.35592099313013364 -0.49284723579122125 C 0.35383228449938897 -0.49284723579122125 0.35174357586864435 -0.49284723579122125 0.3473003229632421 -0.49284723579122125 C 0.35641468789740055 -0.5031008963421502 0.3642378511325532 -0.5121013317146312 0.3723268500116189 -0.5209118844843177 C 0.42093679632713077 -0.573927107184673 0.46969864872487865 -0.6268284003233509 0.5181946654787135 -0.6799575525853829 C 0.5258659226316302 -0.6883503636289208 0.5362714892647945 -0.6871351149710327 0.545461807240071 -0.6884263166700386 C 0.6416183572954428 -0.7016421458245685 0.7379268134330509 -0.7141364210884771 0.8341213400089817 -0.7271623676402124 C 0.8969724815341162 -0.735669108245427 0.9596337404564558 -0.7456569331524423 1.0225608350227082 -0.7534421198670358 C 1.1326927446437898 -0.7670756907477148 1.2429765603471075 -0.7703416715157883 1.3529565638859529 -0.75177115296244 C 1.5001915340931713 -0.7269345085168581 1.6346663933925683 -0.6708431876512246 1.7567229304691736 -0.5849782746673402 C 1.7931424136852485 -0.5593441232900189 1.8280048595584044 -0.5316212632819541 1.8612722915680833 -0.5001007512179889 C 1.861690033294232 -0.5061390179868692 1.8588417942523077 -0.5097467874399733 1.85686701518324 -0.513468486454755 C 1.8162701147056757 -0.590484870148394 1.7581280617298563 -0.6518169508511684 1.68741578044901 -0.7016421458245681 C 1.581271405486623 -0.7764558913257857 1.4623669196164137 -0.8174705335294987 1.3343480688120462 -0.8345599677810458 C 1.2422550064564866 -0.84686436044216 1.150351826703722 -0.8446237457291792 1.0582587643481625 -0.8347498503838406 C 0.9714444383503029 -0.8254076263263279 0.8853516662430643 -0.8111664311167055 0.7989930584919128 -0.7989759680172688 C 0.7344709500621824 -0.7898995796036692 0.6699108651118933 -0.7809371207517468 0.6053887566821632 -0.7719366853792653 C 0.6048950619148963 -0.7725063331876503 0.6044013671476294 -0.773075980996035 0.6039076723803625 -0.7736456288044202 Z M 2.016406378051572 -0.5229626165945038 C 2.0197483118607633 -0.5229626165945038 2.0211154666008873 -0.5227347574711501 2.022406668299893 -0.5229626165945038 C 2.0792954960972656 -0.534583431885556 2.1361463473740794 -0.5465460358616394 2.193604822979837 -0.5552426590696489 C 2.251177228147271 -0.5639392822776583 2.3088255863558236 -0.571648515951134 2.3671575219344376 -0.5732435298146117 C 2.415919374332186 -0.5745727080341767 2.464681226729933 -0.5764335575415673 2.5134430791276814 -0.578066547925604 C 2.610245230032556 -0.5812565756525592 2.70708535745799 -0.5845225564206327 2.8038875083628647 -0.5875986545859111 C 2.8768404043566913 -0.5899152223400097 2.949831276871077 -0.592079884011872 3.022784172864904 -0.5940166865603811 C 3.028860416154343 -0.594168592642617 3.0295819700449633 -0.5965990899583924 3.029468040483287 -0.6015360376310621 C 3.0292022048393736 -0.6113719564558415 3.029392087442169 -0.6212078752806205 3.0293541109216098 -0.631005817584841 C 3.0293541109216098 -0.6458926136439667 3.029316134401051 -0.6457407075617307 3.0139356435746585 -0.6465382144934695 C 2.969427161479518 -0.6487788292064502 2.9249186793843776 -0.6511333734811078 2.8804101972892373 -0.6534879177557655 C 2.790367867043863 -0.6583109358667576 2.70032553679849 -0.6642352730739611 2.610055347429762 -0.6636276487450168 C 2.5222156553768094 -0.6630580009366318 2.434755728529447 -0.6571336637294287 2.3482072381755006 -0.6416772198619187 C 2.2575193070806234 -0.6254612455832282 2.1703631923977333 -0.5977383855751628 2.087004729770742 -0.5584326867966045 C 2.063725122668079 -0.5474574723550556 2.040331586003739 -0.5366721405163015 2.0163684015310137 -0.5228866635533866 Z M 1.7085687024003693 -0.5218612974982926 C 1.704922956426706 -0.5244437008963043 1.7039355668921718 -0.5253551373897198 1.7027582947548432 -0.5259627617186644 C 1.693757859382362 -0.5306338737474205 1.6847574240098802 -0.5352670092556178 1.67571901211684 -0.5398621682432558 C 1.5888667095984212 -0.5838389790505707 1.4982927080652213 -0.617182364101367 1.4027437823387932 -0.6369681313126028 C 1.33871536867633 -0.6502219369876916 1.274003377643805 -0.6570577106883104 1.2088736448851307 -0.6607794097030919 C 1.151718981443845 -0.6640074139506065 1.0945263414820006 -0.6651087330468168 1.0373337015201562 -0.6625263296488055 C 0.9567095483734127 -0.6588805836751421 0.8761233717472283 -0.6549310255370069 0.7954992186004846 -0.6509055143577538 C 0.7639787065365199 -0.6493484770148352 0.7324581944725552 -0.6471458388224134 0.7009376824085904 -0.6455508249589359 C 0.6950133452013874 -0.6452470127944636 0.6930765426528787 -0.6431203276431603 0.6932664252556737 -0.6373099199976344 C 0.6936461904612636 -0.6257270812271416 0.6936461904612636 -0.6141442424566483 0.6933803548173507 -0.6025614036861553 C 0.6932284487351148 -0.5964471838761571 0.6950133452013874 -0.5942445456837355 0.7016592362992113 -0.5940546630809409 C 0.8107278033446411 -0.590902611874544 0.9198343469106298 -0.5874847250242345 1.0289029139560597 -0.5840288616533664 C 1.1358827723707448 -0.5806489513236164 1.2428246542648709 -0.5769272523088347 1.349804512679556 -0.573737224581879 C 1.4468724992283435 -0.5708510090193957 1.5421935658314176 -0.5548249173435 1.63721082027002 -0.5363303518312699 C 1.6600347091259753 -0.5318870989258682 1.6828206214613715 -0.5271400338559937 1.7086066789209282 -0.521899274018853 Z" fill="#3a868f" transform="matrix(1,0,0,1,0,0)" fill-rule="nonzero"></path></g><g clip-path="url(#SvgjsClipPath29718df3fda1a-42d5-45bd-afd8-34f47e6579ac)"><path d=" M 2.1061448961324736 -1.4602611205110263 C 2.076789045740372 -1.4455642070546955 2.04743319534827 -1.430829317077806 2.0180393684356086 -1.4161324036214755 C 1.979531176588789 -1.3968783076980658 1.9409470317008517 -1.377776117856892 1.9025527694157087 -1.3582941628101284 C 1.8952612774683817 -1.3545724637953467 1.8922231558236622 -1.3536230507813718 1.8919573201797495 -1.3639526643734183 C 1.8900964706723586 -1.4285127493237075 1.8875900203154652 -1.4930348577534378 1.8854633351641616 -1.557594942703727 C 1.8820454483138522 -1.6607391725419536 1.8787035145046607 -1.7638834023801804 1.8753615806954693 -1.8670276322184072 C 1.8730070364208116 -1.940360293417824 1.8707284451872719 -2.0136549780966817 1.8683739009126143 -2.0869876392960984 C 1.8678422296247885 -2.103469449218702 1.8672346052958446 -2.119951259141305 1.8663231688024287 -2.136433069063908 C 1.8661712627201925 -2.1393192846263918 1.8686777130770862 -2.144218255778502 1.8628673054315603 -2.144635997504651 C 1.8564492734570903 -2.145091715751359 1.8580822638411272 -2.1399648854758944 1.85796833427945 -2.136471045584467 C 1.8566011795393262 -2.0989502432721814 1.8551200952375255 -2.061391464439337 1.8540187761413145 -2.023870662127051 C 1.850259100605974 -1.8958138348021247 1.8466893076734285 -1.767757007477198 1.8428536790969703 -1.6397001801522715 C 1.838676261835481 -1.5007440914269137 1.8343089619711967 -1.3618259792221148 1.8299416621069127 -1.2229078670173161 C 1.8286124838873477 -1.18086785875851 1.826979493503311 -1.1388278504997043 1.8254604326809512 -1.0964460535558676 C 1.8246249492286535 -1.0966739126792213 1.8233717240502065 -1.0966359361586622 1.8229160058034988 -1.0972055839670476 C 1.761432019018488 -1.1781715257988221 1.6992264783428563 -1.2586817493838884 1.6485278233965999 -1.3470910892452257 C 1.6021964683146277 -1.427867148474205 1.5731444300869972 -1.5147574275131825 1.5603463426586166 -1.6070023959509783 C 1.5601564600558215 -1.608293597649984 1.5601564600558215 -1.609622775869549 1.5600045539735856 -1.6119013671030886 C 1.6371728437494608 -1.5875963939453328 1.7135056500730383 -1.5635572564314895 1.7898384563966154 -1.5395181189176466 C 1.790180245081646 -1.5400877667260313 1.7905600102872363 -1.5406574145344163 1.790901798972267 -1.5412270623428013 C 1.7742301064468688 -1.5605571113073289 1.7576343669625887 -1.5799631133129748 1.7408487448755132 -1.5992172092363846 C 1.7030621069193146 -1.6425863957147553 1.6670603654293885 -1.6874746430154857 1.6310206474189035 -1.7323249137956571 C 1.5822208185005968 -1.7931253232106061 1.5769041056223376 -1.8583689855309573 1.606221979493881 -1.9284736424828595 C 1.6211087755530065 -1.9640196657260773 1.642527533148279 -1.9955781543106013 1.6672882245527427 -2.0248200751410264 C 1.7282785165704864 -2.096785581600319 1.7897625033554971 -2.1683713228540222 1.8510566075377128 -2.2400709936694025 C 1.8601329959513124 -2.2506664429053616 1.8638926714866528 -2.2508563255081566 1.8718677408040414 -2.241476124930085 C 1.9323643380545183 -2.1703840784436492 1.992974864866672 -2.09940596151889 2.053205626473236 -2.0280860559090996 C 2.0859413871950885 -1.9892740518978083 2.113398411559241 -1.9473099966801204 2.1278674658922174 -1.8978265903917515 C 2.1441593932120258 -1.842115034731708 2.137323619511407 -1.7911885206620974 2.1014737841037165 -1.7439077525661504 C 2.060079376694414 -1.689373469043435 2.015912683284304 -1.637193729795378 1.9714421777097224 -1.5852418496706748 C 1.9582263485551927 -1.5698233823237235 1.94398515334557 -1.55524039842907 1.9309971833143942 -1.5373534572457839 C 1.9556819216777401 -1.5453285265631727 1.9788475992187264 -1.552847877633853 2.0020512532802717 -1.560253299142857 C 2.054610757733919 -1.5770389212299318 2.1072082387081252 -1.5937485902758892 2.159767743161772 -1.6105342123629645 C 2.164097066505497 -1.6119013671030884 2.1679706716025144 -1.6140280522543917 2.166755422944627 -1.6060909594575619 C 2.1595019075178596 -1.5585443557177023 2.147919068747366 -1.5121370475946119 2.131703094468676 -1.4668690350882914 C 2.101511760624276 -1.3824472298856485 2.054230992528329 -1.3077094374255491 2.0015575585130048 -1.2358958370484918 C 1.9714801542302818 -1.1948811948447788 1.9404153604130248 -1.1546640595728044 1.9079834118556442 -1.1155102668764822 C 1.9057807736632228 -1.1128519104373524 1.903426229388565 -1.1103074835598998 1.9011476381550254 -1.1077250801618885 C 1.9000463190588146 -1.1079529392852423 1.898982976483163 -1.1081428218880376 1.897881657386952 -1.1083706810113914 C 1.897881657386952 -1.1215485336453623 1.8969702208935362 -1.1348023393204512 1.898299399113101 -1.147866262392745 C 1.8988690469214857 -1.1535627404765936 1.9036920650324782 -1.1590313594370891 1.9071479284033466 -1.1641961662331117 C 1.9567832407739514 -1.2380225221997956 2.0065704592267917 -1.3117349486048022 2.0562817246385148 -1.3855233280509267 C 2.072915440643354 -1.4102080664142727 2.089359274045398 -1.4350447108598545 2.107360144790361 -1.4587800362092256 C 2.108119675201541 -1.4595395666204054 2.1099425481883722 -1.4601851674699082 2.108841229092162 -1.461400416127796 C 2.107929792598746 -1.4624257821828888 2.1065246613380633 -1.461856134374504 2.106106919611914 -1.4602231439904672 Z" fill="#225777" transform="matrix(1,0,0,1,0,0)" fill-rule="nonzero"></path></g><g clip-path="url(#SvgjsClipPath29718df3fda1a-42d5-45bd-afd8-34f47e6579ac)"><path d=" M 1.6315523187067302 -1.644295339139909 C 1.631970060432879 -1.6435358087287293 1.6328435204057357 -1.642282583550283 1.632653637802941 -1.6420927009474877 C 1.6315902952272894 -1.640991381851277 1.6304509996105194 -1.6414850766185438 1.6295015865965445 -1.6424724661530776 C 1.6301851639666067 -1.6430800904820217 1.6308307648161096 -1.6436877148109654 1.6315143421861713 -1.6442953391399096 Z" fill="#225777" transform="matrix(1,0,0,1,0,0)" fill-rule="nonzero"></path></g><g clip-path="url(#SvgjsClipPath29718df3fda1a-42d5-45bd-afd8-34f47e6579ac)"><path d=" M 1.9661634413520235 -1.083192247880778 C 1.9652899813791664 -1.0829264122368651 1.9638468735979246 -1.0822428348668034 1.96365699099513 -1.0824706939901572 C 1.9625936484194781 -1.0839517782919579 1.96365699099513 -1.084711308703138 1.9649481926941357 -1.0852429799909638 C 1.9653279578997256 -1.0845594026209022 1.9657456996258749 -1.08387582525084 1.9661254648314643 -1.083192247880778 Z" fill="#225777" transform="matrix(1,0,0,1,0,0)" fill-rule="nonzero"></path></g><g clip-path="url(#SvgjsClipPath29718df3fda1a-42d5-45bd-afd8-34f47e6579ac)"><path d=" M 0.6054267332027216 -0.7719366853792662 C 0.6045532732298647 -0.7718607323381481 0.6032240950102998 -0.7714050140914404 0.6028823063252691 -0.7717847792970303 C 0.6020088463524121 -0.7727721688315641 0.6031101654486228 -0.773265863598831 0.6039456489009207 -0.7736076522838622 C 0.6044393436681876 -0.7730380044754772 0.6049330384354547 -0.7724683566670925 0.6054267332027216 -0.771898708858707 Z" fill="#3a868f" transform="matrix(1,0,0,1,0,0)" fill-rule="nonzero"></path></g><g clip-path="url(#SvgjsClipPath29718df3fda1a-42d5-45bd-afd8-34f47e6579ac)"><path d=" M 2.016406378051572 -0.5229626165945038 C 2.0403695625242966 -0.5367101170368596 2.063763099188637 -0.5474954488756139 2.0870427062913004 -0.5585086398377219 C 2.1704391454388503 -0.5978143386162806 2.2575952601217404 -0.6255371986243459 2.3482452146960586 -0.6417531729030361 C 2.434793705050005 -0.6572096167705466 2.522215655376808 -0.6631339539777494 2.6100933239503203 -0.6637036017861342 C 2.700363513319048 -0.6643112261150779 2.7903678670438627 -0.6583489123873163 2.880448173809796 -0.6535638707968832 C 2.924956655904936 -0.6511713500016665 2.969465138000077 -0.6488547822475679 3.0139736200952174 -0.6466141675345871 C 3.0293541109216098 -0.6458546371234071 3.0293541109216098 -0.6459685666850845 3.0293920874421683 -0.6310817706259586 C 3.0293920874421683 -0.6212458518011792 3.0292401813599326 -0.6114099329764002 3.0295060170038455 -0.6016119906721795 C 3.0296199465655222 -0.5966750429995105 3.028898392674902 -0.5942445456837342 3.0228221493854623 -0.5940926396014989 C 2.9498312768710764 -0.59215583705299 2.87687838087725 -0.5899911753811271 2.803925484883423 -0.5876746076270285 C 2.707123333978548 -0.5845985094617505 2.6102832065531145 -0.581332528693677 2.51348105564824 -0.5781425009667214 C 2.464719203250492 -0.5765474871032439 2.4159573508527443 -0.5746486610752941 2.3671954984549965 -0.5733194828557289 C 2.308863562876382 -0.5717244689922514 2.251177228147271 -0.5640152353187755 2.1936427995003953 -0.5553186121107663 C 2.136184323894638 -0.5466219889027568 2.0793714491383835 -0.5346593849266732 2.0224446448204514 -0.5230385696356212 C 2.0211534431214457 -0.5227727339917083 2.0197862883813222 -0.5230385696356212 2.0164443545721307 -0.5230385696356212 Z" fill="#173054" transform="matrix(1,0,0,1,0,0)" fill-rule="nonzero"></path></g><g clip-path="url(#SvgjsClipPath29718df3fda1a-42d5-45bd-afd8-34f47e6579ac)"><path d=" M 1.7085687024003693 -0.5218612974982926 C 1.6827826449408125 -0.5270640808148752 1.6600347091259755 -0.5318491224053083 1.637172843749461 -0.5362923753107101 C 1.5421555893108592 -0.5547869408229402 1.4468345227077846 -0.5707750559782765 1.349766536158997 -0.5736992480613192 C 1.242786677744312 -0.5768892757882749 1.1358447958501858 -0.5805729982824965 1.0288649374355008 -0.5839908851328066 C 0.9197963703900709 -0.5874467485036747 0.8107278033446411 -0.5908646353539841 0.7016212597786522 -0.5940166865603811 C 0.6949753686808284 -0.5942065691631757 0.6931904722145557 -0.5964092073555973 0.6933423782967916 -0.6025234271655955 C 0.6936082139407045 -0.6141062659360885 0.6936082139407045 -0.6256891047065818 0.6932284487351146 -0.6372719434770746 C 0.6930385661323196 -0.6430823511226005 0.6949753686808284 -0.6452090362739045 0.7008997058880314 -0.6455128484383761 C 0.7324202179519961 -0.6471078623018536 0.7639407300159609 -0.6493105004942754 0.7954612420799256 -0.650867537837194 C 0.87604741870611 -0.6548930490164471 0.9566715718528538 -0.6588426071545828 1.037295724999597 -0.6624883531282457 C 1.0944883649614416 -0.665070756526257 1.1517189814438449 -0.6640074139506056 1.2088356683645713 -0.6607414331825321 C 1.2739654011232455 -0.6570577106883095 1.3387153686763296 -0.6501839604671318 1.4027058058182342 -0.636930154792043 C 1.498216755024103 -0.6171443875808071 1.588828733077862 -0.5838389790505696 1.6756810355962806 -0.539824191722696 C 1.684719447489321 -0.535229032735058 1.6937198828618025 -0.5305958972268607 1.7027203182342843 -0.5259247851981046 C 1.703897590371613 -0.5253171608691607 1.7048849799061467 -0.524405724375745 1.70853072587981 -0.5218233209777328 Z" fill="#173054" transform="matrix(1,0,0,1,0,0)" fill-rule="nonzero"></path></g><g clip-path="url(#SvgjsClipPath29718df3fda1a-42d5-45bd-afd8-34f47e6579ac)"><path d=" M 2.1061448961324736 -1.4602611205110263 C 2.106562637858623 -1.461894110895063 2.1079677691193055 -1.4624637587034477 2.1088792056127215 -1.461438392648355 C 2.109980524708932 -1.4601851674699082 2.1081576517221006 -1.4595775431409646 2.1073981213109207 -1.4588180127297847 C 2.1069803795847717 -1.4593117074970514 2.106562637858623 -1.4597674257437592 2.1061448961324736 -1.4602611205110263 Z" fill="#173054" transform="matrix(1,0,0,1,0,0)" fill-rule="nonzero"></path></g></g><g><path d=" M 0.132 0.9345 L 0.132 0.3255 L 0.012 0.3255 L 0.012 0.23249999999999993 L 0.132 0.23249999999999993 L 0.132 0 L 0.234 0 L 0.234 0.23249999999999993 L 0.396 0.23249999999999993 L 0.396 0.3255 L 0.234 0.3255 L 0.234 0.9345 L 0.132 0.9345 M 0.49803662109375 0.6074999999999999 L 0.49803662109375 0.5235 L 0.8385366210937499 0.5235 L 0.8385366210937499 0.6074999999999999 L 0.49803662109375 0.6074999999999999 M 1.487326904296875 0.23849999999999993 Q 1.549576904296875 0.26849999999999996 1.586326904296875 0.32699999999999996 Q 1.623076904296875 0.38549999999999995 1.623076904296875 0.46499999999999997 L 1.623076904296875 0.9345 L 1.521076904296875 0.9345 L 1.521076904296875 0.51 Q 1.521076904296875 0.3015 1.335076904296875 0.3015 Q 1.227076904296875 0.3015 1.173076904296875 0.378 Q 1.119076904296875 0.4545 1.119076904296875 0.5834999999999999 L 1.119076904296875 0.9345 L 1.017076904296875 0.9345 L 1.017076904296875 0.23249999999999993 L 1.119076904296875 0.23249999999999993 L 1.119076904296875 0.34950000000000003 Q 1.155076904296875 0.28200000000000003 1.214326904296875 0.24524999999999997 Q 1.273576904296875 0.20850000000000002 1.351576904296875 0.20850000000000002 Q 1.425076904296875 0.20850000000000002 1.487326904296875 0.23849999999999993 M 1.948557861328125 0.9105 Q 1.869057861328125 0.8625 1.824057861328125 0.77625 Q 1.779057861328125 0.69 1.779057861328125 0.5820000000000001 Q 1.779057861328125 0.474 1.823307861328125 0.38925 Q 1.867557861328125 0.3045 1.946307861328125 0.25649999999999995 Q 2.025057861328125 0.20850000000000002 2.125557861328125 0.20850000000000002 Q 2.226057861328125 0.20850000000000002 2.305557861328125 0.25649999999999995 Q 2.385057861328125 0.3045 2.430057861328125 0.39 Q 2.475057861328125 0.4755 2.475057861328125 0.5834999999999999 Q 2.475057861328125 0.6915 2.430807861328125 0.777 Q 2.386557861328125 0.8625 2.3078078613281248 0.9105 Q 2.229057861328125 0.9585 2.128557861328125 0.9585 Q 2.028057861328125 0.9585 1.948557861328125 0.9105 M 2.253807861328125 0.8295 Q 2.310057861328125 0.7935 2.341557861328125 0.729 Q 2.373057861328125 0.6645 2.373057861328125 0.5834999999999999 Q 2.373057861328125 0.5025 2.341557861328125 0.438 Q 2.310057861328125 0.37349999999999994 2.253807861328125 0.3375 Q 2.197557861328125 0.3015 2.125557861328125 0.3015 Q 2.055057861328125 0.3015 1.999557861328125 0.3375 Q 1.944057861328125 0.37349999999999994 1.9125578613281249 0.43724999999999997 Q 1.881057861328125 0.501 1.881057861328125 0.5820000000000001 Q 1.881057861328125 0.6645 1.9125578613281249 0.729 Q 1.944057861328125 0.7935 1.999557861328125 0.8295 Q 2.055057861328125 0.8654999999999999 2.125557861328125 0.8654999999999999 Q 2.197557861328125 0.8654999999999999 2.253807861328125 0.8295 M 2.656566650390625 0.9345 L 2.656566650390625 0.3255 L 2.536566650390625 0.3255 L 2.536566650390625 0.23249999999999993 L 2.656566650390625 0.23249999999999993 L 2.656566650390625 0 L 2.758566650390625 0 L 2.758566650390625 0.23249999999999993 L 2.920566650390625 0.23249999999999993 L 2.920566650390625 0.3255 L 2.758566650390625 0.3255 L 2.758566650390625 0.9345 L 2.656566650390625 0.9345 M 3.5056032714843752 0.255 Q 3.582103271484375 0.3015 3.625603271484375 0.38175000000000003 Q 3.669103271484375 0.46199999999999997 3.669103271484375 0.5609999999999999 Q 3.669103271484375 0.5894999999999999 3.667603271484375 0.6045 L 3.090103271484375 0.6045 Q 3.096103271484375 0.7125 3.160603271484375 0.789 Q 3.2251032714843753 0.8654999999999999 3.336103271484375 0.8654999999999999 Q 3.426103271484375 0.8654999999999999 3.485353271484375 0.83175 Q 3.544603271484375 0.798 3.580603271484375 0.738 L 3.661603271484375 0.792 Q 3.612103271484375 0.87 3.531103271484375 0.91425 Q 3.450103271484375 0.9585 3.339103271484375 0.9585 Q 3.237103271484375 0.9585 3.157603271484375 0.9105 Q 3.078103271484375 0.8625 3.033103271484375 0.777 Q 2.988103271484375 0.6915 2.988103271484375 0.5834999999999999 Q 2.988103271484375 0.4755 3.032353271484375 0.39 Q 3.076603271484375 0.3045 3.155353271484375 0.25649999999999995 Q 3.234103271484375 0.20850000000000002 3.334603271484375 0.20850000000000002 Q 3.429103271484375 0.20850000000000002 3.5056032714843752 0.255 M 3.567103271484375 0.5205 Q 3.552103271484375 0.41100000000000003 3.4936032714843748 0.35624999999999996 Q 3.435103271484375 0.3015 3.334603271484375 0.3015 Q 3.237103271484375 0.3015 3.174853271484375 0.36375 Q 3.112603271484375 0.42599999999999993 3.096103271484375 0.5205 L 3.567103271484375 0.5205" fill="#173054" fill-rule="nonzero"></path></g><g></g></g><defs><clipPath id="SvgjsClipPath29723"><path d=" M 0.24950356282826291 -2.3046662762070786 h 3.225632766921599 v 2.0546662762070786 h -3.225632766921599 Z"></path></clipPath><clipPath id="SvgjsClipPath29718df3fda1a-42d5-45bd-afd8-34f47e6579ac"><path d=" M 0.24950356282826291 -2.3046662762070786 L 3.475136329749862 -2.3046662762070786 L 3.475136329749862 -0.25 L 0.24950356282826291 -0.25 Z"></path></clipPath></defs></svg>